<html>
<head>
<meta charset="UTF-8">
<meta name="viewport" content="width=device-width, initial-scale=1.0"/>

<style>
.comment
{
    padding-left: 20px;
    margin-top: 4px;
    margin-right: 4px;
    margin-bottom: 4px;
    border: 2px #000 solid;
}
.submission
{
    border: 4px #00f solid;
    padding-left: 20px;
}
.hidden
{
    display: none;
}
</style>
</head>
<body><div class="submission" id="t3_6ocyaw">
    <p class="userinfo">
        <a href="https://www.reddit.com/u/n0197exe">n0197exe</a>
        <span class="score"> | 35 points</span>
        <span class="timestamp"> | Jul 20 2017 01:06:54</span>
    </p>
    <strong>[MOVIE] A History Of Violence (2005) 720p.BluRay.x264-SiNNERS [4.37GB]</strong>
    <p><p><a href="http://www.imdb.com/title/tt0399146">IMDb</a></p>
<hr>
<p><strong>Video</strong></p>
<p>ID                                       : 1</p>
<p>Format                                   : AVC</p>
<p>Format/Info                              : Advanced Video Codec</p>
<p>Format profile                           : High@L3.1</p>
<p>Format settings, CABAC                   : Yes</p>
<p>Format settings, ReFrames                : 5 frames</p>
<p>Codec ID                                 : V_MPEG4/ISO/AVC</p>
<p>Duration                                 : 1h 35mn</p>
<p><strong>Bit rate                                 : 5 895 Kbps</strong></p>
<p><strong>Width                                    : 1 280 pixels</strong></p>
<p><strong>Height                                   : 688 pixels</strong></p>
<p>Display aspect ratio                     : 1.85:1</p>
<p>Frame rate mode                          : Constant</p>
<p>Frame rate                               : 23.976 fps</p>
<p>Color space                              : YUV</p>
<p>Chroma subsampling                       : 4:2:0</p>
<p>Bit depth                                : 8 bits</p>
<p>Scan type                                : Progressive</p>
<p>Bits/(Pixel*Frame)                       : 0.279</p>
<p>Stream size                              : 3.86 GiB (88%)</p>
<p>Writing library                          : x264 core 66 r1109 75b495f</p>
<p>Encoding settings                        : cabac=1 / ref=5 / deblock=1:0:0 / analyse=0x3:0x113 / me=umh / subme=7 / psy_rd=1.0:0.0 / mixed_ref=1 / me_range=16 / chroma_me=1 / trellis=1 / 8x8dct=1 / cqm=0 / deadzone=21,11 / chroma_qp_offset=-2 / threads=6 / nr=0 / decimate=1 / mbaff=0 / bframes=3 / b_pyramid=1 / b_adapt=1 / b_bias=0 / direct=1 / wpredb=1 / keyint=250 / keyint_min=25 / scenecut=40(pre) / rc=2pass / bitrate=5895 / ratetol=1.0 / qcomp=0.60 / qpmin=10 / qpmax=51 / qpstep=4 / cplxblur=20.0 / qblur=0.5 / ip_ratio=1.40 / pb_ratio=1.30 / aq=1:1.00
Language                                 : English
Default                                  : Yes
Forced                                   : No</p>
<p><strong>Audio</strong></p>
<p>ID                                       : 2</p>
<p><strong>Format                                   : AC-3</strong></p>
<p>Format/Info                              : Audio Coding 3</p>
<p>Mode extension                           : CM (complete main)</p>
<p>Format settings, Endianness              : Big</p>
<p>Codec ID                                 : A_AC3</p>
<p>Duration                                 : 1h 35mn</p>
<p>Bit rate mode                            : Constant</p>
<p>Bit rate                                 : 640 Kbps</p>
<p><strong>Channel(s)                               : 6 channels</strong></p>
<p>Channel positions                        : Front: L C R, Side: L R, LFE</p>
<p>Sampling rate                            : 48.0 KHz</p>
<p>Bit depth                                : 16 bits</p>
<p>Compression mode                         : Lossy</p>
<p>Stream size                              : 438 MiB (10%)</p>
<p><strong>Language                                 : English</strong></p>
<p>Default                                  : Yes</p>
<p>Forced                                   : No</p>
<p><strong>Text</strong></p>
<p>ID                                       : 3</p>
<p>Format                                   : UTF-8</p>
<p>Codec ID                                 : S_TEXT/UTF8</p>
<p>Codec ID/Info                            : UTF-8 Plain Text</p>
<p><strong>Language                                 : English</strong></p>
<p>Default                                  : No</p>
<p>Forced                                   : No</p>
<hr>
<p><strong>¡DELETE "MGL" FROM THE LINK</strong></p>
<p><strong>LINK</strong> mega.co.nz/#F!sqoX<strong>MGL</strong>wSBS</p>
<p><strong>KEY:</strong> !XifIbBaSxauixAWBnifCRA</p></p>
    <p class="toolbar">
        <a href="https://www.reddit.com/r/megalinks/comments/6ocyaw">permalink</a>
    </p>
</div>
<div class="comment" id="t1_dkgf47g">
    <p class="userinfo">
        <a
        class="toggle_hide_button"
        href="javascript:void(0)"
        onclick="toggle_collapse(this.parentElement.parentElement)">[-]
        </a>
        <a href="https://www.reddit.com/u/SubZorro">SubZorro</a>
        <span class="score"> | 2 points</span>
        <span class="timestamp"> | Jul 20 2017 01:10:05</span>
    </p>
    <div class="collapsible">
        <h5>Subtitles for this movie:</h5>
<hr>
<blockquote>
<ul>
<li>
<p><strong>A.History.Of.Violence.2005.720p.BluRay.x264-SiNNERS</strong> - <code>1 CD</code> - <a href="http://dl.opensubtitles.org/en/download/vrf-07ae48fd/sub/3522936">Download Subtitle</a></p>
</li>
<li>
<p><strong>A.History.Of.Violence.2005.WS.DVDRip.XviD.AC3-C00LdUdE</strong> - <code>1 CD</code> - <a href="http://dl.opensubtitles.org/en/download/vrf-83d0d3e7/sub/3502411">Download Subtitle</a></p>
</li>
<li>
<p><strong>A.History.Of.Violence[2005]DvDrip.AC3[Eng][Multi-Sub]-Vex</strong> - <code>1 CD</code> - <a href="http://dl.opensubtitles.org/en/download/vrf-e5144838/sub/3608714">Download Subtitle</a></p>
</li>
<li>
<p><strong>A.History.Of.Violence.DVDRip.XviD-DiAMOND</strong> - <code>1 CD</code> - <a href="http://dl.opensubtitles.org/en/download/vrf-5c00a29f/sub/190849">Download Subtitle</a></p>
</li>
</ul>
</blockquote>
<hr>
<p>^This ^list ^of ^subtitles ^are ^taken ^from <a href="http://www.opensubtitles.org">^opensubtitles.org</a> ^| ^For ^feedback ^or ^suggestions ^contact <a href="http://www.reddit.com/message/compose/?to=indigo6alpha">^/u/indigo6alpha</a></p>
        <p class="toolbar">
            <a href="https://www.reddit.com/r/megalinks/comments/6ocyaw/_/dkgf47g">permalink</a>
        </p>
        
    </div>
</div>

<div class="comment" id="t1_dkgfevh">
    <p class="userinfo">
        <a
        class="toggle_hide_button"
        href="javascript:void(0)"
        onclick="toggle_collapse(this.parentElement.parentElement)">[-]
        </a>
        <a href="https://www.reddit.com/u/Jon_Mcguirk">Jon_Mcguirk</a>
        <span class="score"> | 2 points</span>
        <span class="timestamp"> | Jul 20 2017 01:16:35</span>
    </p>
    <div class="collapsible">
        <p>Thanks, awesome movie.</p>
        <p class="toolbar">
            <a href="https://www.reddit.com/r/megalinks/comments/6ocyaw/_/dkgfevh">permalink</a>
        </p>
        
    </div>
</div>

<div class="comment" id="t1_dknmfjk">
    <p class="userinfo">
        <a
        class="toggle_hide_button"
        href="javascript:void(0)"
        onclick="toggle_collapse(this.parentElement.parentElement)">[-]
        </a>
        <a href="https://www.reddit.com/u/Wizard_of_Od">Wizard_of_Od</a>
        <span class="score"> | 2 points</span>
        <span class="timestamp"> | Jul 24 2017 17:03:48</span>
    </p>
    <div class="collapsible">
        <p>Thankyou for sharing. </p>
        <p class="toolbar">
            <a href="https://www.reddit.com/r/megalinks/comments/6ocyaw/_/dknmfjk">permalink</a>
        </p>
        
    </div>
</div>
</body>

<script>
function toggle_collapse(comment_div)
{
    var button = comment_div.getElementsByClassName("toggle_hide_button")[0];
    var collapsible = comment_div.getElementsByClassName("collapsible")[0];
    if (collapsible.classList.contains("hidden"))
    {
        collapsible.classList.remove("hidden");
        button.innerText = "[-]";
    }
    else
    {
        collapsible.classList.add("hidden");
        button.innerText = "[+]";
    }
}
</script>
</html>
